<?xml version="1.0" standalone="no"?>
<!DOCTYPE svg PUBLIC "-//W3C//DTD SVG 20010904//EN"
 "http://www.w3.org/TR/2001/REC-SVG-20010904/DTD/svg10.dtd">
<svg version="1.0" xmlns="http://www.w3.org/2000/svg"
 width="2012.000000pt" height="1644.000000pt" viewBox="0 0 2012.000000 1644.000000"
 preserveAspectRatio="xMidYMid meet">
<metadata>
Created by potrace 1.16, written by Peter Selinger 2001-2019
</metadata>
<g transform="translate(0.000000,1644.000000) scale(0.100000,-0.100000)"
fill="#000000" stroke="none">
<path d="M0 8220 l0 -8220 10060 0 10060 0 0 8220 0 8220 -10060 0 -10060 0 0
-8220z m15279 6164 c213 -62 321 -196 321 -397 0 -118 -7 -108 117 -172 32
-16 64 -36 71 -42 7 -7 19 -13 27 -13 7 0 15 -3 17 -7 2 -5 17 -15 33 -24 102
-53 125 -67 164 -99 13 -11 30 -20 37 -20 7 0 14 -4 16 -9 2 -5 35 -32 73 -62
39 -29 75 -58 82 -64 6 -5 34 -30 63 -55 28 -25 76 -69 107 -98 32 -30 64 -59
73 -65 15 -12 52 -53 130 -147 25 -29 50 -58 55 -64 31 -34 120 -153 171 -231
76 -115 70 -105 133 -232 29 -59 60 -120 67 -135 8 -14 14 -33 14 -41 0 -8 7
-20 15 -27 8 -7 15 -23 15 -36 0 -12 4 -25 9 -29 5 -3 12 -19 16 -36 4 -17 13
-42 21 -57 8 -15 14 -34 14 -43 0 -8 7 -24 15 -35 8 -10 15 -31 15 -46 0 -15
6 -42 14 -60 17 -41 35 -108 46 -173 4 -27 13 -63 19 -78 6 -16 11 -47 11 -70
0 -23 5 -58 11 -77 35 -111 37 -737 4 -913 -8 -42 -15 -97 -15 -121 0 -24 -7
-63 -15 -86 -8 -23 -15 -58 -15 -78 0 -19 -6 -58 -14 -86 -16 -57 -33 -124
-45 -176 -22 -92 -34 -136 -42 -152 -5 -10 -13 -34 -18 -55 -12 -50 -52 -164
-74 -210 -6 -13 -8 -25 -6 -27 15 -15 106 -56 123 -56 12 0 30 -7 40 -15 11
-8 28 -15 37 -15 10 0 30 -6 46 -14 15 -8 46 -21 68 -29 58 -22 126 -48 160
-62 17 -7 49 -20 73 -29 23 -9 61 -23 85 -32 23 -9 56 -22 72 -29 17 -7 50
-20 75 -30 25 -9 59 -23 75 -30 17 -7 39 -15 50 -18 38 -10 103 -34 188 -71
17 -8 41 -16 52 -19 11 -3 45 -15 75 -27 30 -12 69 -26 87 -31 18 -5 35 -14
38 -19 4 -6 15 -10 27 -10 11 0 32 -6 46 -13 29 -15 80 -37 124 -55 15 -6 45
-28 67 -48 41 -36 41 -37 41 -109 0 -82 -13 -112 -67 -159 -32 -27 -40 -29
-114 -28 -54 1 -86 6 -101 16 -12 9 -32 16 -43 16 -11 0 -29 7 -39 15 -11 8
-31 15 -45 15 -14 0 -35 7 -45 15 -11 8 -28 15 -37 15 -10 0 -30 6 -46 14 -29
15 -53 25 -193 76 -47 17 -98 37 -115 44 -16 8 -50 21 -75 31 -25 9 -58 23
-73 31 -16 8 -33 14 -39 14 -5 0 -26 7 -46 16 -21 9 -52 22 -70 30 -18 8 -40
14 -48 14 -9 0 -28 6 -42 14 -37 20 -116 50 -186 71 -33 10 -71 24 -85 31 -14
8 -31 14 -37 14 -7 0 -25 7 -40 15 -16 8 -36 15 -45 15 -8 0 -19 4 -25 8 -5 5
-38 19 -74 31 -68 24 -75 27 -152 60 -26 12 -50 21 -54 21 -4 0 -30 11 -58 24
-29 14 -65 28 -81 32 -17 4 -32 10 -35 14 -3 3 -36 16 -75 29 -38 12 -79 26
-90 31 -11 5 -49 19 -85 30 -36 12 -78 28 -95 35 -73 33 -104 45 -114 45 -6 0
-25 6 -43 14 -18 8 -51 22 -73 31 -22 9 -52 23 -67 31 -14 7 -34 14 -45 14
-10 0 -27 7 -37 15 -11 8 -29 15 -40 15 -12 0 -30 7 -40 15 -11 8 -29 15 -40
15 -12 0 -30 7 -40 15 -11 8 -28 15 -37 15 -10 0 -30 6 -46 14 -52 26 -104 46
-118 46 -7 0 -28 8 -47 17 -18 9 -45 22 -60 30 -14 7 -33 13 -42 13 -8 0 -30
6 -48 14 -18 8 -49 21 -70 30 -20 9 -43 16 -51 16 -9 0 -18 4 -22 10 -3 5 -20
14 -38 19 -32 10 -68 23 -167 61 -30 12 -64 24 -75 27 -21 5 -71 27 -117 50
-14 7 -35 13 -46 13 -11 0 -27 6 -34 13 -7 8 -25 16 -38 19 -35 8 -90 28 -123
44 -16 8 -36 14 -46 14 -9 0 -26 7 -37 15 -10 8 -27 15 -36 15 -17 0 -67 19
-121 46 -16 8 -35 14 -44 14 -8 0 -27 7 -41 15 -15 8 -56 26 -92 39 -231 84
-270 99 -300 115 -9 5 -30 12 -48 15 -17 4 -34 12 -37 17 -4 5 -13 9 -22 9 -8
0 -29 6 -46 14 -96 44 -127 56 -141 56 -9 0 -16 4 -16 9 0 5 -16 12 -35 15
-19 4 -47 13 -62 21 -15 8 -35 15 -43 15 -8 0 -24 7 -34 15 -11 8 -27 15 -37
15 -9 0 -30 7 -45 15 -16 8 -37 15 -46 15 -9 0 -19 4 -22 9 -3 5 -38 19 -78
32 -40 13 -82 29 -93 36 -11 7 -27 13 -37 13 -17 0 -68 20 -120 46 -14 8 -35
14 -46 14 -12 0 -23 4 -26 9 -3 4 -34 18 -68 31 -65 23 -113 43 -160 67 -14 7
-33 13 -41 13 -8 0 -28 7 -43 15 -16 8 -37 15 -46 15 -9 0 -19 4 -22 9 -3 5
-18 12 -33 15 -16 4 -41 13 -58 21 -71 33 -104 45 -122 45 -10 0 -27 7 -37 15
-11 8 -29 15 -40 15 -12 0 -30 7 -40 15 -11 8 -29 15 -40 15 -12 0 -30 7 -40
15 -11 8 -29 15 -40 15 -12 0 -30 7 -40 15 -11 8 -28 15 -39 15 -10 0 -31 6
-45 14 -52 27 -103 46 -121 46 -10 0 -24 7 -31 15 -7 8 -22 15 -34 15 -11 0
-30 7 -40 15 -11 8 -28 15 -39 15 -10 0 -31 6 -45 13 -15 8 -42 21 -60 30 -19
9 -40 17 -49 17 -8 0 -27 6 -41 13 -58 29 -98 47 -125 53 -15 3 -30 10 -33 15
-3 5 -12 9 -21 9 -8 0 -29 6 -46 14 -18 7 -51 21 -73 31 -65 27 -84 60 -84
148 0 47 6 85 15 103 8 16 15 36 15 44 0 8 7 24 15 34 8 11 15 28 15 38 0 9 6
32 14 50 8 18 21 49 30 70 9 20 16 42 16 50 0 7 7 22 15 32 8 11 15 28 15 37
0 10 6 30 14 46 8 15 29 60 46 98 18 39 36 77 40 85 5 8 21 38 35 65 53 103
143 256 155 265 3 3 10 12 13 20 4 8 16 29 27 45 11 17 23 37 27 45 6 13 54
82 81 115 4 6 24 33 45 60 63 85 80 107 137 174 71 85 251 266 315 316 27 22
57 47 66 55 33 31 69 60 76 60 4 0 16 8 27 19 55 49 342 231 365 231 6 0 11 4
11 9 0 5 14 12 30 16 17 4 30 11 30 16 0 5 5 9 11 9 13 0 101 41 109 51 3 3
22 12 42 18 21 7 40 17 43 22 4 5 16 9 29 9 12 0 26 4 32 8 9 9 100 39 204 68
30 9 76 22 101 30 26 8 60 14 76 14 17 0 52 7 79 15 27 8 62 15 77 15 15 0 56
6 90 14 175 41 699 40 873 0 33 -8 79 -14 103 -14 23 0 51 -5 62 -11 11 -5 52
-14 92 -19 40 -5 82 -12 94 -15 24 -8 34 1 110 92 23 27 57 58 77 67 19 9 38
21 41 26 3 6 14 10 23 10 9 0 28 7 42 14 35 19 152 19 219 0z m-10916 -551
c-2 -9 7 -11 30 -6 17 3 34 6 37 6 21 3 110 -16 110 -23 0 -6 4 -10 9 -10 24
0 82 -43 72 -53 -16 -16 -13 -24 10 -30 11 -3 23 -15 26 -26 6 -23 18 -27 28
-11 3 6 10 10 15 10 14 0 66 -81 74 -115 4 -16 12 -33 18 -36 6 -4 13 -31 14
-59 2 -29 9 -58 15 -66 8 -10 11 -244 10 -860 -2 -941 -1 -958 38 -972 14 -5
222 -10 461 -11 239 0 562 -4 718 -8 l283 -6 29 28 c17 16 30 34 30 39 0 6 7
24 15 39 8 15 17 45 21 65 4 20 10 42 14 47 3 6 15 33 25 60 10 28 27 68 39
90 11 22 21 49 22 59 1 11 9 25 18 31 9 7 14 19 11 27 -3 8 3 23 15 33 11 10
20 21 20 26 0 4 35 43 78 88 73 76 122 108 143 95 5 -3 8 0 7 7 -2 6 13 16 32
21 19 5 44 13 55 18 11 5 45 17 75 26 30 9 74 25 97 36 26 11 53 16 68 12 18
-4 25 -2 25 8 0 14 33 33 110 63 55 21 96 39 134 56 16 8 38 13 49 11 11 -2
17 1 13 7 -4 6 10 14 32 20 20 6 46 17 57 25 11 9 29 16 39 16 11 0 27 6 35
13 9 7 43 21 76 31 33 10 74 24 90 32 17 8 46 17 65 21 19 3 41 12 48 20 7 7
24 13 38 13 13 0 24 4 24 8 0 5 17 15 38 24 20 9 55 24 77 34 22 9 46 16 53
15 6 -1 12 4 12 11 0 14 53 48 74 48 7 0 33 15 57 33 48 36 107 57 162 57 21
0 37 6 40 15 7 17 173 14 234 -5 89 -28 159 -64 155 -80 -1 -7 2 -9 8 -5 17
11 140 -74 133 -93 -5 -11 -2 -14 10 -9 17 6 137 -75 137 -93 0 -5 7 -10 15
-10 9 0 18 -7 21 -15 4 -8 10 -12 15 -9 5 3 12 -2 16 -11 16 -42 94 -106 146
-119 15 -3 27 -11 27 -16 0 -5 27 -30 60 -55 33 -26 58 -51 55 -56 -4 -5 3 -9
13 -9 22 0 129 -68 124 -79 -1 -3 -10 -9 -20 -12 -14 -5 -14 -7 6 -18 12 -6
22 -17 22 -24 1 -15 86 -70 119 -77 13 -3 31 -19 40 -36 9 -17 31 -49 49 -71
17 -22 29 -42 27 -45 -3 -3 4 -13 15 -23 11 -10 20 -26 20 -36 0 -10 5 -21 10
-24 6 -3 10 -16 10 -27 0 -11 7 -26 15 -32 8 -6 19 -35 25 -65 5 -30 14 -59
19 -65 15 -18 34 -229 27 -298 -15 -159 -23 -215 -34 -235 -7 -12 -12 -33 -12
-47 0 -14 -7 -51 -15 -83 -11 -40 -15 -111 -16 -230 -1 -131 -4 -175 -14 -183
-8 -6 -11 -18 -9 -25 7 -18 -14 -57 -27 -50 -5 4 -9 -1 -9 -9 0 -9 -8 -24 -17
-34 -25 -26 -43 -59 -43 -78 0 -21 -76 -126 -141 -194 -29 -30 -62 -70 -75
-87 -40 -59 -115 -136 -133 -138 -36 -2 -82 -45 -79 -73 2 -18 -2 -27 -12 -28
-45 -2 -93 -39 -86 -66 4 -20 -59 -82 -74 -73 -5 3 -14 -4 -20 -15 -6 -11 -20
-20 -30 -20 -11 0 -20 -4 -20 -9 0 -13 -108 -63 -135 -63 -13 0 -26 -7 -29
-14 -4 -9 -22 -14 -52 -14 -29 0 -51 -6 -58 -14 -9 -11 -55 -15 -218 -19 -145
-3 -212 -8 -223 -17 -19 -16 -480 -7 -500 10 -8 6 -44 10 -87 8 l-73 -3 -3
-30 c-1 -16 -7 -39 -12 -50 -10 -21 -33 -166 -29 -181 2 -5 -3 -39 -9 -76 -7
-36 -13 -90 -13 -120 -1 -29 -6 -78 -13 -108 -21 -100 7 -588 35 -605 5 -4 9
-23 9 -43 0 -20 7 -50 15 -66 8 -15 15 -39 15 -52 0 -36 31 -147 47 -165 7 -8
13 -28 13 -43 0 -15 5 -37 12 -49 7 -12 13 -31 15 -41 2 -11 10 -27 18 -36 8
-9 12 -19 9 -23 -7 -6 19 -86 42 -129 8 -14 14 -35 14 -46 0 -11 7 -25 15 -32
8 -7 15 -23 15 -37 0 -13 8 -36 17 -50 10 -14 16 -38 15 -53 -2 -18 2 -30 12
-33 11 -4 16 -19 16 -46 0 -25 5 -41 15 -45 8 -3 15 -17 15 -30 0 -14 5 -38
11 -53 6 -15 15 -37 19 -48 9 -23 27 -89 41 -155 5 -25 14 -53 19 -62 6 -10
10 -30 10 -44 0 -15 6 -50 14 -78 34 -122 66 -354 70 -506 2 -90 11 -130 28
-130 11 0 70 41 97 68 8 8 24 12 37 9 23 -4 39 14 35 40 -1 6 14 21 33 32 19
12 37 28 40 37 3 8 11 12 17 9 12 -8 49 22 49 41 0 7 17 23 38 35 20 13 41 29
45 36 4 7 13 13 19 13 5 0 27 14 48 30 21 17 42 30 47 30 6 0 18 9 28 20 10
11 20 18 22 16 2 -2 18 9 36 25 17 16 39 29 48 29 9 0 23 7 30 17 8 9 28 22
44 30 44 21 75 39 88 52 6 6 17 11 25 11 8 0 27 9 43 21 18 13 40 19 54 17 17
-4 25 0 28 14 3 10 13 18 24 18 28 0 94 26 103 40 9 14 165 70 197 70 12 0 38
9 56 19 19 10 45 19 58 19 13 0 87 12 164 27 192 38 472 44 679 14 76 -11 141
-18 143 -15 3 2 25 -4 50 -15 25 -11 60 -19 77 -17 17 1 43 -6 58 -16 15 -10
35 -16 45 -15 10 1 32 -4 48 -10 17 -7 35 -14 40 -15 15 -4 47 -16 80 -30 17
-8 46 -17 65 -22 19 -4 37 -8 40 -9 3 -1 19 -7 35 -15 81 -35 99 -42 111 -44
7 -1 21 -10 32 -19 10 -9 24 -17 30 -17 11 0 26 -6 72 -31 168 -90 173 -90
240 11 8 12 21 28 28 36 6 7 12 17 12 23 0 6 10 21 22 33 12 12 43 53 69 92
26 39 65 86 87 103 21 17 47 48 56 68 14 30 21 35 39 29 18 -5 20 -4 10 7 -10
10 -5 21 24 53 20 23 40 42 44 44 3 1 68 62 143 135 141 137 187 177 204 177
6 0 12 4 14 10 6 17 203 151 230 157 15 3 25 9 22 14 -3 5 3 12 13 16 10 3 21
12 26 19 4 7 20 15 36 19 16 3 39 17 51 31 13 13 31 24 41 24 9 0 22 6 28 13
6 8 30 22 53 32 24 10 51 25 60 33 12 10 28 12 53 8 28 -6 35 -4 35 9 0 18 41
37 54 25 4 -5 23 6 40 24 18 17 52 38 77 45 24 7 58 18 74 25 17 6 34 10 38 8
5 -1 27 6 50 17 54 24 143 51 172 51 12 0 40 7 61 16 22 9 59 19 84 21 25 3
59 11 77 18 18 8 92 17 165 21 73 3 138 11 144 16 29 22 641 -9 681 -35 6 -4
40 -10 75 -13 34 -4 68 -10 73 -14 6 -5 33 -11 60 -15 46 -6 64 -11 121 -37
11 -5 36 -10 55 -11 19 -1 32 -6 29 -12 -3 -6 15 -13 40 -17 118 -17 136 -22
157 -40 11 -11 32 -19 45 -17 22 2 52 -8 108 -36 14 -7 52 -20 85 -30 33 -9
74 -23 90 -30 87 -39 105 -45 123 -45 12 0 28 -12 38 -30 10 -16 24 -32 31
-35 8 -2 11 -1 8 4 -10 17 13 21 57 11 24 -5 79 -17 122 -25 44 -8 83 -20 87
-26 4 -7 16 -9 28 -6 11 3 25 -1 32 -9 6 -8 26 -14 45 -14 28 0 187 -45 249
-70 11 -5 32 -11 48 -14 15 -4 27 -11 27 -16 0 -6 13 -10 29 -10 16 0 42 -11
58 -23 15 -13 42 -27 58 -30 47 -9 85 -26 85 -37 0 -16 60 -71 70 -65 16 10
39 -37 33 -67 -4 -21 -2 -28 8 -26 11 2 15 -20 21 -97 11 -160 1 -3274 -10
-3315 -6 -19 -14 -46 -17 -60 -4 -14 -16 -45 -26 -68 -18 -39 -22 -42 -37 -30
-15 12 -16 11 -3 -5 12 -15 11 -20 -3 -35 -9 -10 -16 -22 -16 -26 0 -14 -73
-97 -83 -93 -13 4 -77 -53 -77 -70 0 -7 -12 -19 -28 -27 -32 -16 -64 -50 -60
-62 5 -17 -53 -82 -79 -89 -18 -4 -23 -9 -15 -17 14 -14 -218 -248 -247 -248
-12 0 -21 -5 -21 -10 0 -6 -14 -19 -31 -29 -17 -10 -50 -44 -73 -75 -23 -31
-52 -63 -64 -72 -17 -12 -20 -19 -13 -28 8 -10 -2 -25 -37 -59 -26 -26 -52
-52 -59 -59 -43 -46 -112 -108 -122 -108 -6 0 -11 -7 -11 -15 0 -18 -40 -56
-52 -49 -4 3 -8 1 -8 -4 0 -6 -41 -51 -90 -101 -50 -50 -88 -91 -85 -91 3 0
-17 -24 -45 -52 -27 -29 -50 -56 -50 -60 0 -5 -7 -8 -15 -8 -8 0 -19 -9 -25
-21 -10 -17 -14 -18 -28 -7 -14 11 -15 10 -9 -6 10 -25 -89 -122 -108 -106 -8
7 -21 -1 -45 -25 -19 -19 -39 -35 -46 -35 -7 0 -15 -9 -19 -19 -5 -17 -44 -55
-120 -119 -15 -12 -35 -22 -45 -22 -10 0 -22 -5 -26 -11 -8 -14 -109 -6 -128
10 -7 6 -16 8 -19 4 -4 -3 -12 -1 -19 4 -7 6 -35 14 -63 17 -27 4 -69 14 -93
22 -23 8 -56 14 -72 14 -17 0 -30 4 -30 9 0 6 -21 13 -47 16 -27 4 -58 13 -70
21 -12 8 -32 14 -44 14 -11 0 -35 6 -52 14 -18 8 -48 17 -67 20 -67 10 -130
31 -130 43 0 14 -8 16 -125 34 -44 6 -84 15 -90 19 -5 4 -30 11 -55 15 -25 4
-55 13 -67 21 -12 8 -40 14 -63 14 -28 0 -40 4 -40 15 0 18 -112 15 -118 -4
-2 -6 -11 -11 -20 -11 -9 0 -30 -7 -46 -15 -15 -8 -39 -15 -52 -15 -13 0 -23
-5 -21 -10 2 -12 -121 -80 -146 -80 -6 0 -18 -6 -26 -13 -9 -7 -36 -20 -61
-27 -25 -8 -51 -22 -58 -32 -7 -10 -19 -15 -28 -11 -9 3 -21 -3 -31 -17 -10
-13 -22 -20 -34 -17 -10 3 -23 -1 -30 -9 -6 -8 -17 -14 -25 -14 -17 0 -81 -29
-116 -52 -14 -10 -38 -19 -52 -20 -14 -1 -28 -8 -31 -16 -3 -7 -9 -11 -13 -8
-5 3 -21 -4 -38 -15 -16 -10 -39 -19 -51 -19 -13 0 -23 -4 -23 -10 0 -12 -78
-50 -103 -50 -11 0 -25 -7 -32 -17 -7 -9 -25 -16 -44 -15 -17 0 -31 -3 -31 -8
0 -22 -65 -54 -106 -52 -35 1 -48 -4 -71 -26 -27 -28 -133 -82 -158 -82 -7 0
-15 -7 -19 -15 -3 -8 -13 -15 -22 -15 -9 0 -33 -9 -53 -19 -36 -19 -285 -139
-372 -180 -25 -11 -50 -21 -56 -21 -6 0 -22 -9 -37 -21 -18 -14 -37 -20 -56
-17 -16 2 -29 2 -28 -1 2 -21 -4 -31 -21 -31 -10 0 -24 -6 -30 -14 -7 -8 -27
-13 -46 -12 -18 1 -33 -3 -32 -8 1 -6 -25 -23 -58 -39 -33 -16 -61 -34 -63
-38 -2 -5 -10 -9 -17 -9 -7 0 -36 -11 -63 -25 -28 -14 -57 -25 -66 -25 -8 0
-20 -9 -26 -21 -9 -16 -14 -18 -26 -8 -11 9 -18 6 -35 -15 -12 -15 -24 -25
-27 -22 -3 3 -19 -3 -37 -14 -18 -11 -34 -17 -37 -14 -4 3 -14 1 -25 -4 -80
-43 -129 -62 -155 -62 -17 0 -36 -7 -43 -16 -8 -11 -29 -17 -68 -18 -32 0 -59
-6 -61 -12 -3 -7 -29 -15 -58 -19 -29 -4 -58 -12 -65 -17 -22 -18 -399 -13
-473 6 -105 28 -173 48 -207 63 -17 7 -38 13 -46 13 -8 0 -28 7 -43 15 -16 8
-39 15 -51 15 -12 0 -42 11 -66 24 -24 12 -62 26 -84 29 -22 4 -53 14 -69 22
-16 8 -36 15 -45 15 -9 0 -30 7 -45 15 -16 8 -39 15 -50 15 -12 0 -35 7 -50
15 -16 8 -37 15 -46 15 -9 0 -19 4 -23 9 -3 6 -25 13 -50 17 -24 3 -50 12 -56
20 -6 8 -29 14 -50 14 -22 0 -41 6 -46 14 -4 8 -24 16 -43 17 -19 2 -46 9 -60
16 -14 7 -32 13 -41 13 -9 0 -18 3 -22 6 -10 10 -140 53 -162 54 -11 0 -29 7
-39 15 -11 8 -28 15 -38 15 -11 0 -32 7 -47 15 -16 8 -40 16 -54 19 -14 2 -34
9 -45 15 -12 6 -30 11 -42 11 -11 0 -23 7 -26 15 -4 9 -19 15 -40 15 -18 0
-48 6 -66 14 -18 7 -59 22 -91 31 -31 10 -62 24 -68 32 -6 7 -26 13 -43 13
-30 0 -133 30 -166 49 -9 5 -30 12 -49 16 -18 4 -44 13 -59 21 -15 8 -37 14
-50 14 -12 0 -30 4 -40 9 -26 14 -146 51 -165 51 -9 0 -17 4 -17 9 0 5 -16 12
-36 16 -20 3 -44 10 -53 15 -24 12 -101 38 -139 45 -18 4 -45 13 -60 21 -15 8
-34 14 -43 14 -9 0 -30 7 -45 15 -16 8 -39 15 -51 15 -12 0 -25 5 -28 10 -3 6
-14 10 -23 10 -9 0 -29 6 -44 14 -14 8 -45 17 -67 21 -31 5 -41 11 -41 26 0
16 -3 17 -17 8 -19 -11 -73 2 -73 18 0 5 -21 9 -47 10 -34 2 -52 8 -63 22 -11
15 -22 19 -38 14 -13 -3 -33 -1 -45 5 -12 7 -40 16 -62 21 -43 10 -90 26 -142
48 -17 7 -39 13 -50 13 -10 1 -29 7 -43 15 -14 8 -35 14 -46 15 -12 0 -35 7
-50 15 -16 8 -40 15 -54 15 -14 0 -34 7 -44 15 -11 8 -27 15 -37 15 -9 0 -30
7 -45 15 -16 8 -38 15 -50 15 -28 0 -36 10 -23 27 9 11 5 13 -22 12 -48 -1
-158 20 -196 37 -17 8 -38 14 -46 14 -9 0 -18 4 -21 9 -5 8 -58 22 -98 26 -10
1 -29 10 -43 19 -14 9 -31 16 -38 15 -6 -2 -37 9 -67 23 -30 14 -86 34 -125
43 -38 10 -77 24 -86 31 -8 8 -29 15 -45 17 -57 8 -164 60 -178 89 -6 13 -24
29 -39 36 -15 7 -27 18 -27 25 0 12 -82 92 -89 86 -2 -2 -7 3 -11 11 -4 8 -15
29 -24 47 -26 50 -66 222 -66 283 0 31 -6 62 -12 68 -7 7 -13 34 -13 60 -1 26
-9 81 -18 122 -32 150 -48 247 -53 330 -4 57 -11 88 -20 93 -10 6 -14 29 -14
81 0 54 -4 77 -15 86 -9 7 -14 18 -11 25 4 12 -10 108 -21 135 -3 8 -7 39 -10
68 -2 30 -11 72 -19 94 -8 22 -14 55 -14 72 0 30 -36 246 -47 276 -3 8 -6 35
-7 60 -1 25 -9 68 -17 95 -8 28 -16 73 -17 100 -2 28 -9 73 -16 100 -8 28 -17
88 -21 134 -4 46 -10 91 -15 100 -5 9 -14 52 -20 96 -33 238 -37 411 -10 542
20 101 44 189 60 223 4 8 21 61 39 117 18 57 37 105 42 109 5 3 9 16 9 30 0
14 4 33 9 43 6 10 11 29 13 43 2 13 11 37 21 51 9 14 17 40 17 56 0 16 5 33
10 36 6 3 10 18 10 33 0 15 7 36 15 46 8 11 15 28 15 38 0 10 7 29 15 41 8 13
16 32 18 42 2 11 9 31 17 45 7 13 17 38 21 55 20 75 57 169 68 173 6 2 11 17
11 32 0 16 7 46 16 67 9 21 22 52 29 68 7 17 32 89 55 160 58 180 61 187 73
210 6 11 14 33 18 50 10 38 37 114 49 140 6 11 12 30 15 42 2 12 9 32 16 45 7
13 12 27 11 31 -1 4 5 21 13 37 8 16 15 40 15 54 0 14 4 27 9 30 5 3 19 38 32
78 13 40 27 75 31 76 5 2 8 11 8 21 0 9 9 34 20 56 11 22 20 49 20 62 0 12 4
24 9 28 5 3 12 18 16 34 3 16 12 34 19 40 6 5 13 27 14 48 2 20 7 40 12 43 4
3 12 19 16 35 4 17 10 35 14 40 4 6 11 25 15 44 4 18 16 48 26 66 11 18 17 39
14 47 -3 7 4 24 15 36 14 15 19 29 15 42 -7 22 17 64 30 52 4 -4 5 8 2 26 -5
25 -2 37 14 53 11 11 19 30 17 43 -1 13 5 31 15 41 10 9 17 28 15 40 -2 13 6
32 16 44 11 12 16 29 13 40 -3 11 1 28 9 38 7 10 14 25 14 34 0 9 7 30 15 45
8 16 15 39 15 51 0 12 4 24 9 28 17 10 40 65 47 110 3 25 10 45 14 45 5 0 11
14 15 31 4 17 13 42 21 57 8 15 14 32 14 38 0 5 9 30 21 53 11 24 18 45 15 48
-3 3 1 15 9 27 8 11 15 30 15 41 0 11 7 29 15 39 8 11 15 27 15 37 0 9 7 30
15 45 8 16 15 36 15 44 0 9 4 20 8 25 5 6 24 50 42 98 18 48 37 90 42 93 4 3
8 16 8 30 0 14 4 33 9 43 6 10 12 28 14 42 2 13 9 35 14 49 6 14 26 66 44 117
18 50 37 89 43 86 5 -4 6 -1 2 6 -5 7 5 47 22 89 16 42 42 111 57 152 15 41
33 89 40 105 45 112 52 147 32 163 -22 19 -1331 12 -1349 -6 -10 -11 -13 -191
-13 -927 0 -718 -3 -917 -12 -926 -7 -7 -13 -31 -13 -52 0 -33 -31 -118 -50
-137 -3 -3 -10 -14 -17 -25 -6 -11 -16 -19 -22 -18 -6 2 -11 -2 -11 -7 0 -24
-143 -130 -174 -130 -9 0 -16 -4 -16 -9 0 -26 -77 -33 -405 -38 -367 -6 -397
-3 -520 45 -79 31 -169 110 -158 139 4 10 2 14 -4 10 -14 -9 -35 17 -69 83
-26 50 -29 64 -29 161 0 59 -5 112 -11 120 -6 8 -11 55 -13 104 -1 60 -7 95
-16 104 -10 11 -68 14 -272 16 -532 6 -482 2 -576 49 -65 33 -82 45 -82 63 -1
24 -71 103 -89 100 -6 -1 -11 7 -11 18 0 11 -7 23 -15 26 -8 3 -15 10 -15 15
-1 5 -9 25 -19 44 -18 33 -20 74 -25 597 -5 481 -8 564 -21 577 -10 10 -45 16
-103 19 -48 2 -91 7 -94 11 -4 3 -17 6 -30 6 -29 0 -85 39 -76 53 3 6 1 7 -4
4 -16 -10 -53 68 -53 111 0 21 12 60 28 91 33 65 61 76 212 85 155 8 144 -25
138 401 -5 305 3 669 15 730 4 20 22 65 38 97 5 10 9 24 9 32 0 8 6 21 13 28
7 7 16 21 20 30 3 10 12 15 19 13 8 -3 21 8 32 25 10 17 24 29 31 26 7 -2 12
3 11 12 -1 13 8 17 37 18 21 1 43 6 50 13 6 6 22 11 36 11 15 0 34 12 50 30
l26 31 360 5 c198 3 364 9 369 14 5 5 8 72 8 149 -1 103 2 149 13 175 8 19 15
55 15 79 0 40 23 105 41 117 7 5 9 11 9 28 0 4 16 25 35 46 19 22 35 43 35 48
0 4 3 7 8 6 4 -2 23 9 43 25 20 15 46 27 57 27 13 0 22 6 22 15 0 21 13 25
122 39 127 17 654 16 651 -1z"/>
<path d="M13770 13889 c-41 -5 -113 -12 -160 -17 -47 -5 -98 -15 -113 -21 -16
-6 -40 -11 -54 -11 -23 0 -67 -12 -158 -42 -16 -5 -46 -14 -65 -18 -45 -10
-97 -28 -133 -46 -16 -8 -39 -14 -52 -14 -12 0 -28 -7 -35 -15 -7 -8 -20 -15
-29 -15 -14 0 -124 -48 -161 -71 -8 -5 -22 -12 -30 -15 -8 -3 -22 -10 -30 -15
-8 -5 -26 -14 -40 -20 -13 -5 -27 -13 -30 -17 -3 -4 -26 -17 -52 -30 -27 -13
-48 -27 -48 -32 0 -4 -8 -11 -17 -14 -35 -13 -73 -37 -73 -47 0 -5 -7 -9 -15
-9 -7 0 -18 -6 -22 -13 -4 -7 -36 -35 -71 -61 -88 -67 -332 -311 -399 -399
-12 -16 -38 -47 -58 -68 -63 -69 -56 -72 150 -74 174 -2 245 -11 350 -47 17
-5 46 -13 65 -17 19 -4 44 -12 55 -19 11 -6 47 -21 80 -34 55 -21 194 -98 222
-123 6 -5 26 -21 45 -35 110 -83 318 -332 318 -382 0 -9 7 -21 15 -28 8 -7 15
-19 15 -27 0 -8 6 -27 14 -41 25 -50 38 -97 46 -163 5 -37 14 -84 20 -106 28
-93 -12 -433 -66 -562 -16 -35 -6 -61 22 -61 8 0 22 -4 32 -9 24 -13 98 -46
152 -66 25 -9 57 -23 72 -31 14 -8 38 -14 52 -14 14 0 26 -4 26 -9 0 -5 14
-12 31 -16 17 -4 42 -13 57 -21 15 -8 34 -14 42 -14 8 0 24 -7 34 -15 11 -8
32 -15 48 -15 15 0 28 -4 28 -10 0 -5 17 -12 38 -16 20 -4 46 -13 57 -20 11
-8 29 -14 40 -14 11 0 29 -7 39 -15 11 -8 28 -15 39 -15 10 0 25 -7 33 -15 9
-8 25 -15 37 -15 12 0 31 -7 41 -15 11 -8 28 -15 39 -15 10 0 25 -7 33 -15 9
-8 25 -15 37 -15 12 0 31 -7 41 -15 11 -8 29 -15 40 -15 12 0 30 -7 40 -15 11
-8 30 -15 42 -15 12 0 27 -7 34 -15 7 -8 24 -15 39 -15 14 0 35 -7 45 -15 11
-8 29 -15 40 -15 12 0 30 -7 40 -15 11 -8 29 -15 40 -15 12 0 30 -7 40 -15 11
-8 29 -15 40 -15 12 0 30 -7 40 -15 11 -8 30 -15 42 -15 13 0 25 -4 29 -10 3
-5 20 -14 38 -19 40 -12 116 -39 142 -50 11 -5 38 -15 60 -24 133 -50 143 -54
226 -90 76 -33 97 -1 163 238 8 28 21 77 31 110 53 193 63 233 75 298 5 26 13
62 19 80 18 60 56 280 71 407 5 47 15 114 22 150 20 105 16 706 -5 845 -19
123 -42 238 -62 305 -35 121 -49 168 -62 197 -7 17 -13 36 -13 43 0 7 -6 24
-14 38 -8 15 -22 45 -31 67 -94 223 -254 404 -437 494 -57 28 -112 51 -121 51
-10 0 -28 5 -40 12 -12 6 -48 15 -82 19 -33 4 -96 13 -140 20 -62 9 -101 9
-170 0 -50 -6 -121 -15 -160 -20 -38 -4 -80 -13 -92 -19 -12 -7 -35 -12 -50
-12 -16 0 -38 -7 -49 -15 -10 -8 -31 -15 -45 -15 -14 0 -34 -7 -45 -15 -10 -8
-29 -15 -40 -15 -12 0 -27 -7 -34 -15 -7 -8 -21 -15 -30 -15 -16 0 -45 -12
-100 -41 -8 -5 -41 -21 -72 -36 -32 -15 -58 -31 -58 -35 0 -4 -9 -8 -20 -8
-11 0 -23 -7 -26 -15 -4 -8 -15 -15 -25 -15 -11 0 -22 -7 -25 -15 -4 -8 -10
-15 -15 -15 -9 0 -65 -36 -79 -50 -8 -8 -43 -29 -65 -39 -11 -6 -40 -28 -65
-50 -25 -23 -55 -41 -66 -41 -12 0 -29 -12 -39 -26 -56 -86 -185 -156 -185
-101 0 26 187 220 305 317 37 30 76 63 86 73 10 9 24 17 29 17 6 0 10 3 10 8
0 4 21 21 45 37 25 17 45 33 45 38 0 4 6 7 14 7 8 0 21 6 28 13 13 13 100 68
128 80 8 4 42 23 75 42 33 19 71 40 85 45 14 6 36 16 50 24 14 7 38 16 53 20
36 9 34 47 -3 57 -34 9 -247 8 -340 -2z"/>
<path d="M15810 13278 c0 -7 14 -40 30 -73 16 -33 30 -65 30 -72 0 -6 6 -24
14 -40 20 -40 36 -91 47 -143 5 -24 14 -49 19 -54 6 -6 10 -23 10 -38 0 -15 6
-45 14 -65 8 -21 17 -64 21 -95 4 -32 11 -60 16 -63 5 -4 9 -31 9 -61 0 -30 8
-90 17 -132 20 -94 24 -787 4 -882 -6 -30 -16 -102 -21 -160 -11 -125 -36
-265 -76 -437 -8 -34 -14 -75 -14 -93 0 -17 -5 -40 -10 -51 -6 -10 -14 -38
-19 -61 -5 -24 -14 -59 -21 -78 -7 -19 -16 -48 -22 -65 -6 -16 -14 -48 -18
-70 -9 -46 -26 -98 -46 -138 -8 -16 -14 -36 -14 -46 0 -9 -6 -26 -14 -37 -18
-25 -29 -85 -19 -100 8 -12 98 -54 115 -54 5 0 28 -8 51 -19 23 -10 83 -33
132 -51 50 -18 104 -39 122 -46 17 -8 35 -14 41 -14 5 0 23 -7 38 -15 16 -8
37 -15 46 -15 9 0 19 -4 22 -9 3 -5 22 -12 41 -15 19 -4 35 -11 35 -16 0 -4
14 -11 31 -15 17 -4 42 -13 57 -21 15 -8 32 -14 39 -14 6 0 26 -8 45 -17 18
-9 41 -20 50 -25 10 -4 31 -8 47 -8 28 0 30 3 65 118 20 64 44 142 52 172 8
30 22 76 30 101 7 26 14 58 14 73 0 14 6 43 14 63 14 39 35 136 61 283 13 80
25 202 40 415 8 113 -19 453 -47 585 -11 52 -25 120 -31 150 -7 30 -15 60 -20
67 -4 6 -11 31 -16 55 -9 44 -24 88 -48 145 -7 17 -13 36 -13 42 0 10 -50 125
-71 161 -10 18 -44 89 -53 110 -3 8 -15 29 -26 45 -11 17 -25 42 -31 58 -6 15
-15 27 -20 27 -5 0 -9 6 -9 13 0 8 -13 33 -30 55 -16 23 -30 45 -30 50 0 4
-13 22 -30 40 -16 18 -30 36 -30 39 0 8 -66 88 -125 152 -124 133 -184 189
-290 271 -38 29 -72 56 -75 59 -3 3 -26 21 -52 39 -48 33 -78 41 -78 20z"/>
<path d="M11940 12438 c-19 -5 -54 -13 -77 -17 -23 -4 -48 -12 -55 -18 -7 -6
-25 -13 -40 -17 -16 -3 -28 -11 -28 -16 0 -6 -4 -10 -9 -10 -21 0 -109 -67
-166 -126 -58 -60 -126 -175 -141 -237 -3 -15 -10 -30 -15 -33 -5 -3 -9 -25
-9 -49 0 -40 3 -45 28 -51 15 -4 36 -13 47 -20 11 -8 27 -14 37 -14 9 0 32 -6
50 -14 18 -8 53 -22 78 -31 25 -9 57 -23 72 -31 14 -8 35 -14 46 -14 11 0 25
-7 32 -15 7 -8 21 -15 32 -15 11 0 29 -5 41 -12 21 -12 150 -59 214 -79 18 -5
35 -14 38 -19 4 -6 15 -10 27 -10 11 0 32 -6 46 -14 15 -8 47 -22 72 -32 25
-10 63 -25 85 -34 22 -10 81 -32 130 -50 50 -18 94 -37 99 -42 6 -4 19 -8 30
-8 12 0 34 -7 50 -15 15 -8 33 -15 38 -15 6 0 24 -6 41 -14 18 -8 56 -22 86
-32 l53 -19 19 23 c10 13 21 40 24 60 4 20 13 60 21 89 37 135 -1 446 -63 511
-7 7 -13 18 -13 23 0 10 -40 67 -80 115 -36 42 -155 134 -174 134 -9 0 -16 3
-16 8 0 8 -39 26 -202 96 -20 9 -44 16 -55 16 -10 1 -29 7 -43 15 -14 8 -38
14 -55 15 -16 0 -52 7 -79 15 -54 17 -162 18 -216 3z"/>
<path d="M4306 13495 c-5 -14 -42 -16 -282 -15 l-277 2 -23 -29 c-13 -15 -23
-32 -24 -37 0 -5 -7 -18 -16 -27 -15 -17 -16 -43 -5 -286 7 -177 11 -862 10
-2012 l0 -1744 30 -30 30 -30 319 -1 319 0 31 25 c17 13 33 36 37 50 3 14 7
929 7 2032 l1 2006 -24 36 c-15 22 -35 38 -52 42 -16 3 -31 12 -34 19 -7 19
-39 18 -47 -1z"/>
<path d="M2707 12719 c-9 -6 -26 -8 -36 -4 -12 3 -21 0 -25 -10 -3 -8 -11 -15
-18 -15 -23 0 -54 -44 -66 -93 -16 -60 -17 -2413 -2 -2422 6 -3 10 -17 10 -30
0 -39 11 -55 54 -78 39 -20 52 -21 317 -21 285 1 339 5 358 28 12 15 18 2568
6 2599 -6 14 -20 17 -74 18 -290 3 -426 10 -441 24 -19 17 -57 19 -83 4z"/>
<path d="M8505 12617 c-11 -8 -31 -18 -45 -22 -14 -4 -40 -21 -58 -36 -18 -16
-39 -29 -47 -29 -8 0 -15 -4 -15 -10 0 -15 -42 -34 -71 -32 -15 1 -39 -5 -55
-13 -16 -8 -34 -15 -40 -15 -7 0 -14 -9 -17 -20 -4 -16 -14 -20 -46 -20 -23 0
-41 -4 -41 -9 0 -9 -58 -39 -120 -61 -19 -7 -49 -19 -67 -26 -17 -8 -34 -14
-38 -14 -4 0 -20 -9 -36 -21 -16 -11 -33 -17 -39 -14 -6 3 -24 -3 -40 -15 -17
-12 -30 -18 -30 -15 0 4 -16 -3 -36 -14 -19 -12 -40 -19 -45 -15 -5 3 -23 -4
-39 -16 -17 -12 -30 -19 -30 -15 0 3 -9 1 -21 -5 -15 -9 -24 -8 -36 2 -14 11
-15 10 -9 -10 6 -19 4 -22 -18 -22 -39 0 -40 0 -58 -17 -9 -8 -22 -12 -28 -8
-19 12 -60 -3 -54 -20 4 -9 0 -15 -7 -15 -44 -2 -95 -14 -101 -25 -4 -7 -18
-10 -33 -7 -18 3 -25 0 -25 -11 0 -10 -13 -18 -35 -23 -19 -3 -35 -10 -35 -15
0 -5 -10 -9 -22 -9 -13 0 -35 -6 -50 -14 -15 -8 -37 -12 -49 -9 -14 4 -20 2
-16 -4 7 -11 -20 -28 -36 -24 -5 1 -6 -3 -2 -9 3 -5 -5 -14 -18 -19 -27 -10
-62 -87 -76 -166 -5 -25 -12 -39 -20 -37 -10 2 -12 -6 -7 -32 4 -20 2 -37 -4
-41 -19 -12 -11 -55 13 -64 23 -9 393 -14 1207 -15 452 -1 466 -2 505 -22 22
-11 40 -27 41 -35 0 -22 16 -53 32 -65 23 -17 22 -100 0 -96 -13 2 -16 -4 -15
-25 1 -19 -3 -28 -16 -31 -20 -4 -61 -42 -70 -66 -6 -14 -41 -16 -304 -16
-164 0 -579 -3 -922 -6 -622 -6 -625 -6 -642 -28 -10 -11 -21 -36 -25 -54 -3
-18 -14 -37 -24 -42 -11 -6 -15 -18 -12 -38 2 -18 -2 -33 -12 -41 -9 -8 -16
-25 -16 -39 0 -14 -6 -33 -14 -41 -8 -9 -16 -29 -18 -46 -3 -16 -12 -47 -21
-68 -9 -21 -16 -41 -15 -45 1 -4 -12 -37 -30 -73 -18 -37 -32 -72 -32 -78 0
-7 -7 -28 -16 -49 -9 -20 -18 -44 -19 -52 -4 -23 -54 -163 -65 -182 -6 -10
-10 -25 -10 -33 0 -9 -4 -14 -9 -11 -5 4 -7 -2 -4 -13 3 -10 0 -22 -6 -25 -6
-4 -11 -16 -11 -27 0 -11 -4 -17 -10 -14 -6 3 -9 -4 -9 -17 1 -13 -8 -45 -20
-73 -13 -27 -39 -99 -59 -160 -19 -60 -39 -111 -44 -113 -4 -2 -8 -10 -8 -19
0 -14 -11 -44 -45 -118 -8 -16 -17 -45 -20 -63 -4 -18 -13 -36 -21 -39 -8 -3
-14 -19 -14 -38 0 -19 -4 -36 -9 -39 -5 -3 -12 -22 -15 -41 -5 -22 -13 -35
-23 -35 -11 0 -14 -6 -9 -25 7 -27 -9 -69 -23 -61 -4 3 -8 -15 -8 -40 0 -25
-4 -49 -10 -52 -6 -4 -14 -22 -18 -40 -4 -18 -13 -36 -20 -39 -8 -2 -11 -11
-9 -18 3 -8 -1 -29 -9 -47 -20 -43 -32 -81 -29 -92 2 -5 -4 -17 -13 -26 -9
-10 -19 -37 -22 -60 -3 -23 -12 -44 -19 -47 -8 -3 -14 -18 -14 -34 0 -27 -16
-72 -46 -131 -8 -14 -14 -35 -14 -46 0 -12 -5 -24 -11 -27 -16 -11 -28 -49
-18 -61 5 -6 1 -19 -12 -33 -12 -13 -19 -30 -16 -41 3 -11 -1 -24 -9 -31 -8
-6 -14 -22 -14 -34 0 -13 -8 -38 -17 -57 -9 -18 -22 -45 -30 -60 -7 -14 -13
-33 -13 -40 0 -8 -9 -23 -20 -33 -13 -12 -18 -25 -14 -37 3 -10 1 -24 -4 -31
-6 -7 -14 -30 -18 -52 -4 -22 -13 -49 -20 -60 -8 -11 -14 -29 -14 -41 0 -12
-5 -24 -11 -26 -7 -2 -14 -21 -16 -42 -2 -21 -10 -48 -18 -59 -7 -12 -15 -33
-17 -47 -2 -14 -9 -35 -16 -47 -7 -12 -12 -28 -12 -35 0 -8 -9 -34 -21 -57
-11 -24 -18 -45 -15 -48 2 -3 -4 -21 -15 -40 -11 -20 -18 -42 -15 -50 4 -8 -3
-27 -14 -43 -11 -15 -20 -36 -20 -47 0 -10 -7 -31 -15 -47 -9 -16 -13 -36 -11
-43 3 -7 -3 -19 -14 -25 -11 -7 -20 -23 -20 -36 0 -12 -6 -38 -14 -57 -8 -18
-12 -36 -9 -39 3 -2 -2 -15 -11 -28 -9 -12 -16 -29 -16 -38 0 -13 -9 -35 -52
-122 -4 -10 -8 -24 -8 -32 0 -7 -7 -27 -15 -42 -8 -16 -15 -38 -15 -49 0 -11
-9 -38 -19 -60 -22 -45 -29 -62 -47 -120 -13 -46 -25 -79 -65 -186 -16 -42
-29 -81 -29 -88 0 -6 -9 -30 -21 -52 -11 -23 -18 -43 -15 -46 3 -3 -1 -18 -9
-34 -8 -15 -15 -37 -15 -47 0 -11 -9 -31 -20 -45 -11 -14 -20 -36 -20 -49 0
-12 -7 -32 -15 -42 -8 -10 -12 -23 -9 -27 3 -5 -6 -44 -20 -86 -13 -43 -32
-103 -42 -133 -19 -62 -23 -229 -6 -308 22 -98 34 -169 41 -238 5 -39 11 -76
14 -81 4 -6 9 -42 12 -81 3 -39 12 -87 21 -107 8 -19 17 -77 20 -127 4 -51 11
-98 16 -105 6 -7 12 -50 15 -95 3 -46 10 -88 15 -94 4 -7 13 -40 17 -75 16
-111 32 -202 47 -261 8 -32 14 -78 14 -104 0 -25 5 -54 11 -65 10 -20 22 -82
39 -199 9 -68 22 -145 41 -245 28 -143 51 -306 56 -382 3 -54 9 -86 19 -94 8
-7 14 -30 14 -58 0 -50 28 -131 46 -131 6 0 17 -6 23 -14 13 -15 187 -86 212
-86 8 0 24 -7 35 -15 10 -8 29 -15 41 -15 12 0 37 -6 55 -14 18 -8 52 -19 76
-26 25 -6 40 -15 36 -22 -4 -6 1 -8 14 -4 11 4 37 0 58 -8 22 -7 66 -22 99
-31 33 -10 64 -21 70 -26 5 -5 18 -9 30 -9 11 0 32 -6 47 -14 15 -8 41 -17 58
-21 17 -4 43 -13 58 -21 15 -8 34 -14 42 -14 16 -1 108 -31 125 -42 6 -3 30
-9 55 -13 24 -4 61 -16 82 -27 21 -11 44 -18 52 -15 8 3 22 -1 33 -8 10 -8 30
-15 44 -15 15 0 38 -9 52 -20 14 -11 39 -20 55 -20 17 0 37 -7 46 -15 8 -9 28
-14 45 -13 17 1 38 -5 49 -15 10 -9 27 -17 37 -17 20 0 80 -17 107 -31 10 -5
23 -9 30 -9 7 0 26 -7 41 -15 15 -8 45 -17 65 -21 20 -4 42 -10 47 -14 6 -5
27 -11 47 -15 21 -4 42 -13 49 -21 6 -8 26 -14 44 -14 39 0 49 -8 32 -28 -10
-14 -9 -15 8 -7 11 4 27 7 35 6 60 -5 85 -13 178 -57 29 -14 57 -22 63 -19 5
4 16 2 24 -5 7 -6 30 -12 50 -13 21 -2 42 -9 49 -18 10 -14 90 -37 147 -43 32
-3 51 -15 44 -27 -4 -5 10 -9 31 -9 20 0 52 -9 71 -21 18 -12 42 -19 53 -16
11 3 25 -2 31 -10 7 -8 24 -13 38 -12 14 2 37 -3 50 -10 27 -15 151 -52 151
-45 0 2 10 -2 23 -11 13 -8 36 -16 51 -17 16 -2 31 -8 33 -15 3 -7 12 -13 19
-13 8 0 26 -7 40 -17 15 -10 43 -16 68 -15 28 1 48 -3 56 -13 7 -8 20 -15 29
-15 10 0 36 -9 59 -20 22 -11 47 -20 54 -20 8 0 47 -12 88 -26 41 -14 89 -29
106 -33 16 -4 42 -15 55 -25 14 -9 28 -13 32 -10 9 9 77 -16 118 -43 21 -13
48 -23 65 -22 30 3 44 -1 174 -47 41 -14 91 -30 110 -36 19 -5 39 -14 45 -19
5 -5 21 -9 35 -9 14 0 30 -4 35 -8 6 -5 30 -14 55 -21 44 -12 77 -24 112 -42
10 -5 26 -9 35 -9 10 0 31 -7 47 -15 15 -8 35 -15 43 -15 8 0 35 -9 60 -21 25
-11 65 -22 90 -24 24 -1 50 -8 58 -15 12 -10 146 -23 240 -22 50 0 231 25 240
33 5 5 16 9 25 9 8 0 28 7 44 15 15 8 38 15 50 15 11 0 30 7 40 15 11 8 25 15
32 15 7 0 23 4 36 9 13 5 25 8 28 7 3 0 19 8 35 20 36 24 83 46 109 51 11 2
27 10 36 18 9 8 31 16 48 18 18 2 40 11 50 20 10 10 26 17 35 17 9 0 19 4 22
10 8 13 89 48 131 56 19 3 39 14 44 24 5 10 22 23 37 29 16 6 35 15 43 19 8 5
31 16 50 24 19 9 62 28 95 43 33 15 78 34 100 43 22 8 51 23 65 32 14 9 61 31
105 50 44 18 86 38 94 44 8 6 22 10 31 8 10 -2 20 4 23 13 4 8 13 15 21 15 9
0 31 9 51 20 20 11 42 20 49 20 7 0 19 7 26 15 7 8 20 15 30 15 10 0 23 7 30
15 7 8 23 15 35 15 12 0 28 7 35 15 7 8 23 15 36 15 13 0 43 13 66 29 24 16
56 33 71 36 15 4 27 11 27 16 0 5 7 9 16 9 9 0 32 7 52 16 65 30 176 84 221
109 24 14 48 22 53 19 5 -3 15 1 21 10 7 9 23 18 36 21 13 2 31 11 41 20 9 8
23 15 31 15 8 0 20 5 26 11 6 6 17 11 26 13 14 2 50 18 118 52 14 8 29 11 32
8 3 -4 18 3 32 14 14 11 39 24 55 27 17 4 30 10 30 15 0 4 12 11 27 15 15 3
30 11 33 16 3 4 15 10 27 12 11 1 28 11 37 20 10 9 26 17 36 17 10 0 22 5 25
10 3 5 19 10 36 10 16 0 28 5 27 11 -2 6 4 14 12 18 8 5 25 13 37 19 13 7 30
12 39 12 9 0 22 7 28 15 16 22 154 22 198 1 17 -9 42 -16 55 -16 13 0 37 -7
52 -14 15 -8 39 -16 52 -18 13 -2 29 -7 35 -10 6 -4 31 -10 55 -14 24 -4 49
-10 54 -14 6 -4 26 -11 45 -15 19 -4 40 -11 45 -15 6 -5 32 -11 59 -15 27 -4
61 -14 75 -21 14 -8 37 -14 51 -14 14 -1 36 -7 50 -15 14 -8 41 -14 60 -15 19
0 52 -9 72 -19 20 -11 44 -19 54 -19 11 1 36 -6 56 -16 21 -10 44 -16 51 -13
7 3 24 -1 38 -9 13 -7 42 -13 65 -14 22 0 49 -7 60 -15 10 -8 34 -15 52 -15
24 0 32 -5 32 -17 1 -17 1 -17 11 0 5 9 16 17 24 17 7 0 26 11 42 24 15 13 38
26 51 30 12 4 20 12 16 17 -8 13 37 55 109 103 48 32 55 40 42 50 -13 9 -9 18
31 58 26 26 51 45 55 42 5 -3 13 5 18 18 5 13 28 42 52 64 24 23 76 75 116
116 40 41 74 74 76 72 4 -4 97 94 97 102 0 3 70 74 156 158 124 123 160 153
176 148 17 -4 20 -1 16 15 -6 22 64 107 105 127 12 7 22 18 22 26 1 19 45 71
55 65 4 -3 10 5 13 16 4 13 10 18 18 13 7 -4 10 -3 6 3 -8 13 17 36 28 25 5
-4 5 -2 2 4 -8 13 16 37 26 27 4 -3 7 0 7 7 0 26 186 200 214 200 26 0 35 13
16 25 -14 9 7 35 27 35 10 0 13 6 9 16 -3 9 1 25 9 37 13 19 15 219 15 1649 0
1777 4 1658 -54 1658 -13 0 -29 7 -36 15 -7 8 -29 15 -49 15 -20 0 -45 7 -55
15 -11 8 -32 15 -47 15 -15 0 -30 4 -34 9 -3 6 -27 13 -53 17 -26 4 -59 13
-74 20 -15 8 -38 14 -51 14 -12 0 -27 4 -33 9 -8 7 -48 20 -214 69 -30 9 -60
20 -66 24 -7 5 -59 11 -115 14 -126 7 -136 9 -119 29 10 12 7 15 -14 20 -14 3
-38 8 -53 11 -16 3 -37 14 -48 24 -11 10 -31 18 -45 18 -22 -1 -53 8 -115 33
-53 21 -152 57 -170 62 -11 3 -51 17 -90 31 -38 14 -80 26 -92 26 -12 0 -37 7
-55 15 -66 29 -281 64 -473 75 -203 12 -384 1 -575 -35 -47 -9 -98 -16 -113
-16 -16 1 -44 -8 -62 -19 -18 -11 -45 -20 -61 -20 -16 -1 -40 -7 -54 -15 -14
-8 -43 -14 -65 -15 -22 0 -53 -7 -68 -15 -15 -8 -45 -17 -65 -21 -20 -4 -44
-13 -54 -21 -11 -10 -18 -11 -23 -4 -11 18 -53 12 -110 -15 -60 -28 -71 -39
-54 -50 15 -9 -16 -34 -42 -34 -9 0 -19 -7 -23 -15 -3 -8 -14 -15 -24 -15 -11
0 -25 -7 -32 -15 -7 -9 -21 -13 -30 -10 -12 4 -19 -1 -23 -16 -5 -17 -11 -20
-29 -16 -17 5 -27 1 -35 -12 -16 -25 -210 -171 -250 -188 -18 -7 -33 -18 -33
-23 0 -14 -29 -41 -80 -74 -25 -15 -116 -100 -202 -187 -87 -87 -161 -159
-166 -159 -16 0 -64 -58 -59 -72 2 -7 -11 -34 -29 -61 -19 -26 -34 -49 -34
-52 0 -2 -16 -20 -35 -39 -19 -20 -35 -38 -35 -42 0 -3 -13 -23 -28 -43 -16
-20 -35 -51 -42 -70 -15 -37 -15 -37 116 -151 22 -19 45 -42 50 -50 5 -9 47
-49 94 -90 117 -103 184 -178 185 -203 0 -15 6 -22 17 -21 15 2 88 -74 88 -90
0 -4 25 -43 55 -87 30 -44 55 -84 55 -88 0 -5 7 -14 15 -21 9 -7 13 -21 10
-31 -3 -10 2 -30 11 -45 17 -25 17 -27 -6 -44 -18 -14 -22 -24 -17 -47 8 -42
-52 -88 -126 -97 -55 -7 -107 5 -107 24 0 6 -5 8 -10 5 -6 -3 -14 4 -19 17 -5
13 -21 34 -35 47 -14 14 -26 30 -26 37 0 6 -7 14 -15 18 -8 3 -15 11 -15 17 0
10 -45 71 -87 119 -8 8 -29 36 -49 63 -19 26 -39 47 -44 47 -6 0 -10 11 -10
25 0 16 -4 23 -14 19 -7 -3 -21 6 -30 20 -9 15 -20 26 -24 26 -5 0 -44 34 -88
75 -43 42 -86 82 -95 90 -9 8 -21 15 -27 15 -7 0 -12 3 -12 8 0 4 -34 32 -75
62 -41 30 -75 59 -75 63 0 5 -4 6 -9 2 -6 -3 -14 3 -20 12 -5 10 -18 18 -28
18 -10 0 -17 6 -16 13 3 10 -8 16 -28 14 -3 -1 -29 17 -57 39 -29 21 -57 39
-62 39 -5 0 -14 9 -20 19 -12 24 -66 52 -84 45 -7 -3 -20 1 -27 8 -8 7 -36 23
-64 36 -27 13 -62 30 -77 38 -14 8 -35 14 -46 14 -11 0 -25 7 -32 15 -7 8 -19
15 -26 15 -8 0 -22 4 -32 9 -9 6 -34 13 -54 16 -21 3 -38 10 -38 14 0 5 -16
12 -35 15 -19 4 -35 11 -35 15 0 5 -28 12 -62 15 -35 4 -67 11 -73 15 -5 5
-30 11 -55 15 -25 4 -56 9 -70 12 -133 28 -671 32 -703 5 -9 -7 -21 -11 -29
-10 -16 3 -67 -9 -89 -21 -9 -5 -34 -12 -55 -15 -22 -4 -46 -9 -54 -12 -21 -9
-21 -9 -55 -17 -16 -4 -44 -14 -62 -22 -17 -8 -37 -14 -45 -14 -7 0 -22 -7
-32 -15 -11 -8 -29 -12 -39 -9 -13 4 -17 2 -13 -5 7 -11 -68 -54 -78 -44 -4 4
-13 -3 -22 -15 -8 -12 -21 -19 -29 -16 -9 4 -23 -3 -33 -16 -10 -12 -29 -23
-44 -23 -14 -1 -24 -5 -21 -10 2 -4 -4 -10 -14 -14 -10 -4 -30 -15 -45 -26
-15 -11 -34 -17 -43 -13 -9 3 -14 2 -11 -3 7 -11 -49 -51 -73 -51 -14 0 -19
-5 -15 -15 4 -9 -3 -19 -17 -25 -39 -18 -65 -35 -65 -42 2 -13 -55 -50 -70
-44 -8 3 -12 2 -9 -4 10 -16 -36 -48 -81 -55 -46 -6 -90 -46 -80 -72 3 -7 -35
-53 -89 -107 -52 -51 -95 -98 -95 -105 0 -6 -26 -37 -58 -69 -31 -31 -73 -80
-91 -109 -19 -30 -39 -50 -45 -46 -6 3 -8 3 -4 -2 10 -11 -11 -47 -25 -42 -22
7 -77 -65 -77 -103 0 -37 -23 -75 -45 -75 -22 0 -74 -70 -75 -101 0 -12 -7
-27 -16 -35 -11 -9 -14 -22 -10 -44 5 -22 2 -36 -9 -45 -8 -7 -15 -18 -15 -25
0 -7 -7 -18 -15 -25 -8 -7 -15 -22 -15 -34 0 -11 -9 -36 -20 -54 -11 -18 -20
-38 -20 -46 0 -7 -14 -32 -31 -55 -17 -24 -28 -45 -26 -48 11 -10 -18 -70 -51
-108 -52 -58 -93 -76 -165 -70 -99 7 -171 99 -129 162 11 18 12 26 3 37 -9 10
-9 16 -1 21 6 4 9 19 5 35 -4 17 -1 33 8 41 7 8 17 27 21 43 7 28 66 156 76
166 3 3 10 14 17 25 6 11 17 19 23 17 8 -2 10 5 6 21 -5 23 14 54 25 42 3 -2
5 10 5 29 0 18 6 39 12 47 19 21 112 209 112 225 0 8 4 14 9 14 5 0 12 51 15
113 4 61 11 128 17 148 13 53 21 502 9 589 -5 41 -17 116 -25 165 -9 50 -20
116 -24 148 -5 31 -13 63 -18 70 -5 6 -10 27 -12 45 -1 18 -9 45 -17 60 -8 15
-14 41 -14 58 0 18 -7 45 -15 60 -8 16 -15 36 -15 44 0 8 -21 74 -46 145 -25
72 -47 141 -50 155 -6 25 -24 69 -51 122 -7 14 -13 36 -13 47 0 12 -4 21 -10
21 -5 0 -12 17 -15 38 -3 20 -13 49 -21 64 -9 16 -12 37 -8 53 4 16 2 25 -5
25 -15 0 -47 72 -57 125 -3 22 -10 45 -14 50 -4 6 -19 55 -34 110 -15 55 -32
110 -38 122 -6 13 -9 25 -6 28 3 3 -3 40 -13 83 -34 142 -35 596 -1 727 6 22
13 82 16 132 3 51 10 101 16 112 5 11 10 46 10 79 0 33 7 76 15 95 8 20 15 66
15 102 0 35 4 84 10 107 5 24 13 81 19 128 10 96 33 128 81 115 14 -4 46 -7
72 -6 25 0 62 -6 82 -14 19 -8 52 -15 73 -15 21 -1 49 -7 63 -15 14 -8 43 -14
65 -15 22 0 63 -7 90 -16 62 -19 387 -22 540 -4 55 7 154 15 220 19 70 3 130
12 143 19 13 8 26 11 29 8 4 -3 13 3 21 15 9 14 21 19 35 15 14 -3 29 5 50 27
16 18 36 31 43 29 8 -2 14 2 14 8 0 17 113 119 132 120 10 0 15 6 13 13 -5 12
31 58 58 74 8 4 26 29 41 55 15 25 34 49 42 52 8 3 13 10 9 15 -3 5 4 12 15
16 11 4 18 10 15 15 -6 10 20 32 28 23 4 -3 7 -1 7 6 0 7 21 36 46 65 26 28
52 62 58 76 6 14 15 28 20 32 6 4 11 81 12 185 1 169 8 222 36 276 5 10 6 26
3 36 -3 10 3 29 13 42 28 35 37 70 21 80 -11 6 -8 19 10 65 23 54 23 61 13
156 -6 55 -16 105 -22 113 -6 7 -11 36 -12 64 0 41 -3 49 -16 44 -12 -5 -14
-1 -9 26 8 41 -7 71 -36 71 -15 0 -30 14 -47 41 -14 23 -49 62 -79 88 -30 25
-64 55 -77 67 -12 12 -29 24 -38 27 -9 4 -16 11 -16 17 0 6 -3 9 -8 6 -4 -2
-30 18 -57 45 -33 33 -56 48 -68 45 -11 -2 -23 3 -30 15 -6 10 -16 19 -21 19
-5 0 -19 10 -32 23 -26 24 -63 55 -109 90 -31 23 -65 51 -119 101 -17 15 -43
34 -58 42 -16 8 -28 19 -28 24 0 6 -5 10 -11 10 -6 0 -28 12 -48 28 -62 47
-84 55 -156 59 -50 3 -76 1 -90 -10z m-2290 -4956 c-3 -14 -10 -46 -15 -70 -6
-24 -14 -49 -19 -55 -4 -6 -11 -30 -15 -54 -3 -24 -10 -51 -15 -60 -8 -16 -17
-48 -47 -177 -57 -240 -97 -460 -114 -620 -6 -55 -15 -136 -21 -180 -7 -50 -9
-187 -6 -370 5 -286 13 -375 51 -535 29 -123 44 -185 55 -220 32 -103 4 -164
-77 -164 -61 0 -91 23 -123 94 -12 25 -27 58 -35 73 -8 16 -14 41 -14 56 0 15
-7 36 -15 47 -8 10 -14 30 -15 44 0 14 -6 45 -14 70 -69 215 -69 836 0 1050 8
25 14 57 14 71 0 15 7 43 15 62 8 20 15 49 15 64 0 15 7 37 15 47 8 11 15 31
15 45 1 14 7 37 15 51 8 14 14 35 15 47 0 12 6 34 14 50 16 33 35 85 46 132 5
18 13 38 19 44 6 6 11 19 11 28 0 10 6 30 14 46 34 67 76 163 76 173 0 6 14
36 30 67 17 31 30 61 30 68 0 7 7 18 15 25 8 7 15 19 15 27 0 26 33 60 53 55
15 -4 17 -11 12 -31z m9194 -1349 c9 -18 7 -25 -34 -117 -7 -16 -21 -48 -31
-70 -16 -36 -107 -196 -126 -220 -4 -5 -35 -47 -68 -93 -48 -65 -64 -81 -74
-73 -15 12 -66 -44 -66 -72 0 -22 -153 -148 -164 -137 -13 13 -46 -17 -46 -42
0 -10 -7 -21 -16 -25 -9 -3 -28 -17 -42 -30 -14 -13 -36 -26 -49 -29 -13 -4
-23 -10 -23 -14 0 -7 -46 -32 -100 -54 -8 -3 -22 -10 -30 -15 -49 -30 -131
-65 -165 -72 -57 -11 -127 -29 -150 -40 -84 -37 -504 -65 -513 -34 -5 17 -35
23 -84 18 -51 -6 -81 8 -71 33 6 17 -18 19 -35 2 -18 -18 -55 19 -48 48 4 14
1 24 -9 28 -19 7 -19 30 1 46 8 8 14 25 12 39 -2 20 1 26 14 25 10 -1 16 2 13
6 -11 18 23 21 236 20 224 0 361 13 475 45 28 8 57 15 65 15 8 1 32 9 54 20
22 11 50 19 63 20 12 0 30 4 40 9 45 25 110 51 124 51 9 0 18 7 22 15 3 8 14
15 24 15 11 0 25 7 32 15 7 8 23 15 35 15 12 0 28 7 35 15 9 10 17 12 23 6 15
-15 40 -2 27 15 -9 10 -3 17 29 33 22 12 42 25 46 31 3 5 14 10 23 10 10 0 32
12 49 28 17 15 50 40 73 56 22 15 39 33 37 39 -2 6 35 49 82 96 47 48 106 110
131 140 25 29 54 63 65 75 11 12 38 45 60 74 45 60 41 57 54 34z m-3289 -1951
c55 -33 73 -66 64 -119 -7 -43 -11 -78 -13 -109 -1 -16 -63 -83 -77 -83 -6 0
-15 -7 -18 -16 -4 -9 -9 -14 -13 -10 -3 3 -12 -3 -20 -14 -8 -11 -20 -20 -27
-20 -8 0 -17 -7 -20 -16 -4 -9 -13 -14 -21 -10 -8 3 -15 1 -15 -4 0 -8 -68
-52 -151 -96 -21 -11 -36 -24 -32 -27 3 -4 0 -7 -8 -7 -8 0 -20 -5 -27 -12 -6
-6 -22 -13 -34 -15 -12 -2 -30 -11 -40 -19 -11 -11 -26 -14 -43 -10 -21 5 -25
3 -23 -11 2 -11 -5 -19 -17 -21 -11 -2 -24 -10 -28 -18 -4 -8 -21 -14 -36 -14
-16 0 -31 -7 -35 -15 -3 -8 -11 -15 -18 -15 -7 0 -26 -7 -43 -16 -16 -8 -39
-13 -51 -10 -16 4 -21 1 -20 -11 0 -10 -3 -18 -9 -19 -36 -5 -75 -18 -75 -25
0 -5 -11 -9 -24 -9 -14 0 -31 -7 -40 -15 -10 -10 -24 -13 -41 -9 -16 4 -39 -1
-63 -12 -20 -10 -39 -19 -42 -19 -3 -1 -25 -5 -50 -9 -25 -5 -51 -13 -57 -18
-7 -6 -13 -9 -13 -6 0 2 -39 -2 -87 -9 -373 -58 -365 -57 -708 -24 -49 5 -117
16 -150 24 -33 9 -63 13 -68 10 -5 -3 -19 -1 -30 5 -35 16 -152 52 -171 52 -9
0 -19 6 -21 13 -3 6 -20 13 -39 14 -18 2 -46 10 -62 18 -16 8 -39 15 -51 15
-14 0 -23 6 -23 15 0 8 -8 15 -19 15 -17 0 -56 14 -116 40 -71 31 -142 65
-155 75 -8 6 -33 17 -55 24 -22 7 -50 22 -62 33 -12 11 -26 17 -32 14 -5 -4
-15 3 -21 14 -6 11 -17 20 -24 20 -27 0 -135 70 -172 111 -27 31 -36 67 -19
77 19 10 22 46 6 66 -13 15 -10 20 23 48 27 22 34 33 26 43 -18 21 12 36 61
29 33 -5 48 -2 57 9 20 23 72 6 142 -48 33 -26 67 -44 75 -42 7 3 19 -1 26
-10 7 -8 22 -19 34 -24 29 -14 61 -33 79 -48 9 -7 22 -11 30 -8 8 3 26 -3 40
-14 14 -11 30 -18 34 -15 5 3 19 -4 31 -15 12 -12 25 -19 27 -16 3 3 32 -8 64
-24 32 -16 66 -29 75 -29 9 0 29 -6 43 -14 35 -19 217 -74 262 -80 19 -2 58
-9 85 -14 160 -34 493 -46 575 -22 19 5 60 10 90 10 30 1 66 7 80 15 14 8 40
14 58 15 18 0 43 6 55 14 12 7 44 16 71 20 27 3 54 10 60 14 6 5 45 19 86 31
41 13 103 36 138 52 34 16 67 29 72 29 6 0 10 5 10 10 0 6 6 10 13 10 7 0 29
9 50 20 20 11 42 20 47 20 6 0 38 18 71 40 33 22 65 38 69 35 5 -3 18 2 29 12
10 10 42 34 71 53 29 19 59 43 68 53 9 9 20 17 24 17 4 0 26 13 50 29 92 61
190 74 258 32z m-5913 -132 c13 -19 23 -39 23 -45 0 -7 6 -25 14 -41 8 -15 23
-46 33 -68 10 -22 24 -46 31 -53 6 -7 12 -17 12 -22 0 -10 139 -150 149 -150
7 0 21 -11 68 -49 6 -6 23 -13 37 -17 14 -3 26 -10 26 -15 0 -5 6 -9 13 -9 6
-1 30 -9 52 -20 22 -11 47 -19 56 -20 9 0 30 -7 45 -15 16 -8 41 -15 57 -15
15 0 27 -4 27 -9 0 -5 26 -12 58 -16 31 -4 89 -13 127 -20 43 -8 151 -14 280
-15 194 -1 211 -2 230 -20 19 -20 19 -20 -16 -20 -19 0 -44 -7 -55 -15 -10 -8
-32 -15 -49 -15 -16 0 -42 -6 -57 -14 -14 -8 -55 -17 -90 -21 -34 -4 -67 -11
-73 -15 -41 -32 -550 -26 -524 6 10 12 2 14 -44 14 -31 0 -58 4 -61 9 -4 5
-24 12 -47 16 -22 4 -43 13 -45 20 -3 7 -16 13 -30 13 -70 0 -253 141 -329
254 -85 127 -129 365 -76 412 49 44 118 33 158 -25z m7233 -40 c14 -8 43 -26
65 -39 22 -14 76 -43 120 -63 44 -21 88 -43 97 -48 10 -5 23 -9 29 -9 6 0 25
-6 42 -14 69 -30 221 -63 372 -81 282 -33 535 -7 875 89 174 49 163 47 197 31
40 -19 35 -32 -25 -69 -119 -74 -213 -120 -236 -117 -10 1 -16 -2 -12 -7 3 -5
-7 -15 -22 -21 -15 -7 -40 -19 -55 -27 -16 -8 -39 -14 -51 -14 -12 0 -31 -7
-42 -15 -10 -8 -28 -15 -40 -15 -11 0 -29 -7 -40 -15 -10 -8 -32 -15 -49 -15
-16 0 -43 -7 -59 -15 -15 -8 -46 -15 -67 -15 -22 0 -56 -7 -77 -16 -30 -12
-83 -15 -267 -16 -231 -1 -283 4 -415 45 -19 6 -51 14 -70 18 -55 11 -121 36
-230 87 -36 16 -72 33 -80 36 -8 3 -22 10 -30 15 -8 5 -22 12 -30 15 -26 10
-53 30 -98 72 -43 40 -44 42 -45 105 -1 60 2 67 32 98 49 50 143 58 211 20z"/>
</g>
</svg>
